<?xml version="1.0" encoding="utf-8"?>
<!-- Generator: Adobe Illustrator 26.0.2, SVG Export Plug-In . SVG Version: 6.00 Build 0)  -->
<svg version="1.1" id="Icon" xmlns="http://www.w3.org/2000/svg" xmlns:xlink="http://www.w3.org/1999/xlink" x="0px" y="0px"
	 viewBox="0 0 250 250" style="enable-background:new 0 0 250 250;" xml:space="preserve">
<style type="text/css">
	.st0{fill:#FFFFFF;}
</style>
<g>
	<path class="st0" d="M231.2,60.6l-103.8-60c-1.6-0.8-3.4-0.8-5,0l-103.8,60C17,61.4,16,63.2,16,65v120c0,1.8,1,3.4,2.6,4.4
		l103.8,60c0.8,0.4,1.6,0.6,2.6,0.6s1.8-0.2,2.6-0.6l103.8-60c1.6-0.8,2.6-2.6,2.6-4.4V65C233.8,63.2,232.8,61.6,231.2,60.6z
		 M223.8,182L125,239.2l-98.8-57V68L125,10.8l98.8,57V182z"/>
	<path class="st0" d="M122.4,44.4l-66,38.2c-0.2,0-0.2,0.2-0.4,0.2c0,0,0,0-0.2,0c-0.2,0.2-0.4,0.4-0.6,0.6L55,83.6
		c-0.2,0.2-0.4,0.4-0.6,0.8l0,0l0,0c-0.2,0.2-0.2,0.6-0.4,0.8v0.2c0,0.2-0.2,0.6-0.2,0.8c0,0,0,0,0,0.2s0,0.4,0,0.6v76.2
		c0,1.8,1,3.4,2.6,4.4l66,38.2c0.2,0,0.4,0.2,0.4,0.2s0,0,0.2,0c0.2,0.2,0.6,0.2,0.8,0.2h0.2c0.2,0,0.6,0,0.8,0s0.6,0,0.8,0h0.2
		c0.2,0,0.6-0.2,0.8-0.2c0,0,0,0,0.2,0s0.4-0.2,0.4-0.2l66-38.2c1.6-0.8,2.6-2.6,2.6-4.4V87c0-0.2,0-0.4,0-0.6c0,0,0,0,0-0.2
		s-0.2-0.6-0.2-0.8v-0.2c-0.2-0.2-0.2-0.6-0.4-0.8l0,0l0,0c-0.2-0.2-0.4-0.4-0.6-0.8c0,0,0-0.2-0.2-0.2c-0.2-0.2-0.4-0.4-0.6-0.6
		c0,0,0,0-0.2,0c-0.2-0.2-0.2-0.2-0.4-0.2l-66-38.2C126,43.6,124,43.6,122.4,44.4z M64,95.6l55.8,32.4v64.6L64,160.2V95.6z
		 M130,192.6V128l55.8-32.4v64.6L130,192.6z M180.8,86.8L125,119.2L69.2,86.8L125,54.6L180.8,86.8z"/>
</g>
</svg>
